<?xml version="1.0" standalone="no"?>
<!DOCTYPE svg PUBLIC "-//W3C//DTD SVG 20010904//EN"
 "http://www.w3.org/TR/2001/REC-SVG-20010904/DTD/svg10.dtd">
<svg version="1.0" xmlns="http://www.w3.org/2000/svg"
 width="512.000000pt" height="512.000000pt" viewBox="0 0 512.000000 512.000000"
 preserveAspectRatio="xMidYMid meet">

<g transform="translate(0.000000,512.000000) scale(0.100000,-0.100000)"
fill="#555555" stroke="none">
<path d="M588 4473 l-48 -4 0 -138 c0 -117 -2 -140 -16 -145 -9 -3 -83 -6
-165 -6 l-149 0 0 -1690 0 -1690 1055 0 c943 0 1055 -2 1055 -15 0 -32 41 -94
77 -116 35 -22 49 -24 163 -24 114 0 128 2 163 24 36 22 77 84 77 116 0 13
112 15 1055 15 l1055 0 0 1690 0 1690 -149 0 c-82 0 -156 3 -165 6 -14 5 -16
27 -16 144 l0 137 -77 7 c-43 4 -141 2 -218 -4 -627 -50 -1168 -286 -1627
-711 l-98 -91 -97 91 c-459 423 -1001 661 -1622 710 -133 11 -158 11 -253 4z
m332 -193 c152 -16 344 -58 500 -110 368 -121 663 -298 932 -559 l119 -116 -3
-803 -3 -804 -75 49 c-41 27 -106 76 -143 108 -75 63 -227 232 -227 251 0 7
16 32 37 56 55 65 100 139 166 272 32 67 68 131 80 143 19 21 19 23 3 48 -30
46 -55 65 -85 65 -41 0 -257 76 -456 160 -93 40 -187 79 -207 88 l-38 15 0
188 0 189 58 -26 c162 -72 395 -168 485 -200 130 -45 318 -94 363 -94 33 0 34
1 34 38 l0 39 -101 17 c-195 34 -383 101 -738 262 -102 46 -188 84 -191 84 -3
0 -5 -165 -5 -367 0 -394 -8 -486 -51 -652 -33 -127 -77 -213 -148 -288 l-59
-63 28 -40 c15 -22 34 -40 41 -40 18 0 103 104 142 171 76 136 131 369 133
569 0 36 3 81 7 101 l7 37 52 -23 c50 -23 51 -24 63 -81 33 -157 119 -383 205
-534 25 -43 45 -84 45 -89 0 -17 -113 -79 -193 -106 -43 -14 -115 -31 -160
-37 -45 -6 -88 -12 -95 -14 -17 -5 43 -94 62 -94 8 0 50 7 93 15 132 25 241
67 334 128 l26 17 83 -100 c45 -56 113 -128 149 -162 81 -75 218 -178 236
-178 8 0 21 10 29 22 15 21 16 -11 16 -356 0 -372 0 -378 -19 -365 -366 261
-698 403 -1151 493 -171 34 -537 78 -572 68 -5 -1 -8 589 -8 1310 l0 1313 52
-3 c29 -1 96 -7 148 -12z m3480 -1295 c0 -723 -3 -1314 -7 -1313 -39 10 -408
-35 -595 -73 -415 -84 -811 -251 -1088 -459 l-55 -41 -3 1198 -3 1198 119 116
c142 138 279 243 445 341 319 189 701 309 1077 337 58 5 106 9 108 10 1 0 2
-591 2 -1314z m-3860 -234 l0 -1249 83 -5 c396 -26 564 -48 794 -106 214 -54
387 -118 583 -216 105 -53 136 -77 88 -68 -29 4 -746 118 -1156 183 -172 28
-317 50 -322 50 -5 0 -22 -12 -39 -26 -24 -20 -31 -34 -31 -61 0 -41 13 -69
40 -83 15 -8 630 -110 1080 -179 33 -5 -206 -9 -607 -10 l-663 -1 0 1510 0
1510 75 0 75 0 0 -1249z m4190 -261 l0 -1510 -662 1 c-365 1 -652 3 -638 6 14
2 95 15 180 28 85 14 325 52 533 85 208 33 386 64 397 70 27 14 40 42 40 83 0
27 -7 41 -31 61 -17 14 -35 26 -40 26 -5 0 -206 -31 -446 -70 -241 -38 -566
-90 -723 -114 -157 -25 -295 -47 -307 -49 -113 -20 225 145 457 223 289 96
527 136 1008 167 l82 5 0 1249 0 1249 75 0 75 0 0 -1510z m-2846 426 c89 -35
194 -74 234 -86 73 -22 74 -23 68 -52 -16 -81 -140 -300 -204 -362 l-30 -28
-25 39 c-73 115 -155 306 -193 448 -26 98 -27 105 -18 105 4 0 79 -29 168 -64z"/>
<path d="M1161 3825 c-17 -76 -128 -292 -205 -398 -35 -49 -98 -129 -140 -178
l-76 -90 27 -34 28 -35 43 43 c24 23 71 77 105 119 l62 77 5 -547 5 -546 25
-13 c14 -7 35 -13 47 -13 l23 0 -5 208 c-3 114 -7 393 -10 621 l-5 414 44 76
c24 42 59 108 79 147 19 38 42 76 51 83 25 21 19 37 -26 74 -65 51 -64 52 -77
-8z"/>
<path d="M3432 3687 c-45 -46 -50 -57 -27 -57 13 0 116 -84 123 -100 5 -14
-526 -240 -564 -240 -21 0 -63 -39 -83 -78 -10 -20 -9 -23 13 -31 13 -6 46
-29 73 -53 166 -148 317 -237 528 -314 86 -31 89 -33 62 -43 -15 -6 -85 -35
-156 -65 -234 -100 -377 -155 -502 -192 -68 -20 -135 -39 -148 -43 l-25 -7 3
-330 c1 -181 4 -331 6 -332 2 -2 22 -1 44 3 l41 7 0 54 c0 35 5 56 13 59 6 2
50 15 97 30 116 36 240 83 467 176 106 44 195 79 198 79 3 0 5 -25 5 -55 0
-59 1 -60 49 -44 l31 11 0 313 c0 173 3 316 8 318 7 4 339 -70 411 -92 19 -6
35 -10 36 -8 0 1 13 19 28 40 21 27 25 39 15 42 -7 3 -107 27 -223 55 -347 83
-475 120 -475 139 0 19 122 172 219 274 44 46 45 49 27 63 -11 8 -25 14 -31
14 -12 0 -115 -112 -219 -237 -37 -46 -73 -83 -80 -83 -17 0 -166 90 -235 142
-68 51 -141 118 -141 128 0 4 11 11 24 14 21 5 162 65 477 201 l76 33 44 -29
c60 -41 201 -112 339 -171 l115 -49 28 32 c15 18 27 36 27 39 0 3 -64 33 -143
67 -227 100 -419 227 -485 323 -15 22 -32 39 -37 40 -6 0 -30 -19 -53 -43z
m166 -1189 l-3 -212 -95 -39 c-375 -153 -662 -258 -674 -246 -2 2 -6 95 -7
207 l-4 203 147 50 c82 27 253 94 380 148 128 55 239 99 246 100 10 1 12 -44
10 -211z"/>
</g>
</svg>
